<svg width="24" height="24" viewBox="0 0 24 24" fill="none" xmlns="http://www.w3.org/2000/svg">
<path d="M3 19.6L9.3 13.3C8.9 12.8 8.58333 12.225 8.35 11.575C8.11667 10.925 8 10.2333 8 9.5C8 7.68333 8.62933 6.146 9.888 4.888C11.1467 3.63 12.684 3.00067 14.5 3C16.316 2.99933 17.8533 3.62867 19.112 4.888C20.3707 6.14733 21 7.68467 21 9.5C21 11.3153 20.3707 12.853 19.112 14.113C17.8533 15.373 16.316 16.002 14.5 16C13.7667 16 13.075 15.8833 12.425 15.65C11.775 15.4167 11.2 15.1 10.7 14.7L4.4 21L3 19.6ZM10 9.5C10 10.75 10.4373 11.8127 11.312 12.688C12.1867 13.5633 13.2493 14.0007 14.5 14C15.7507 13.9993 16.813 13.562 17.687 12.688C18.561 11.814 18.9987 10.7513 19 9.5C19.0013 8.24867 18.5637 7.18633 17.687 6.313C16.8103 5.43967 15.748 5.002 14.5 5C13.252 4.998 12.1893 5.43567 11.312 6.313C10.4347 7.19033 9.99733 8.25267 10 9.5Z" fill="black"/>
</svg>
