<svg width="16" height="16" viewBox="0 0 16 16" fill="none" xmlns="http://www.w3.org/2000/svg">
<circle cx="8" cy="8" r="8" fill="#9146FF"/>
<path fill-rule="evenodd" clip-rule="evenodd" d="M13.7583 4.27726C13.9131 4.45463 14 4.69518 14 4.94599C14 5.19681 13.9131 5.43735 13.7583 5.61473L7.5713 12.7044C7.48954 12.7981 7.39247 12.8725 7.28563 12.9232C7.17879 12.9739 7.06428 13 6.94864 13C6.83299 13 6.71848 12.9739 6.61165 12.9232C6.50481 12.8725 6.40774 12.7981 6.32597 12.7044L3.252 9.18258C3.17316 9.09533 3.11028 8.99096 3.06702 8.87556C3.02375 8.76016 3.00098 8.63604 3.00003 8.51044C2.99908 8.38485 3.01996 8.2603 3.06147 8.14405C3.10297 8.02781 3.16426 7.9222 3.24177 7.83339C3.31927 7.74458 3.41144 7.67434 3.51288 7.62678C3.61432 7.57922 3.72302 7.55529 3.83262 7.55638C3.94222 7.55747 4.05054 7.58357 4.15125 7.63314C4.25196 7.68271 4.34304 7.75477 4.41919 7.84511L6.94836 10.7433L12.5906 4.27726C12.6672 4.18936 12.7583 4.11963 12.8584 4.07206C12.9586 4.02449 13.066 4 13.1745 4C13.2829 4 13.3903 4.02449 13.4905 4.07206C13.5906 4.11963 13.6817 4.18936 13.7583 4.27726Z" fill="white"/>
</svg>
